<svg width="35" height="29" viewBox="0 0 35 29" fill="none" xmlns="http://www.w3.org/2000/svg">
<g clip-path="url(#clip0_101_5)">
<path d="M35 14.0657V14.9938C35 15.1328 35 15.2718 34.9951 15.4107C34.9951 15.4703 34.9951 15.5299 34.9901 15.5845C34.9901 15.7135 34.9803 15.8376 34.9704 15.9666C34.9704 16.0311 34.9605 16.0957 34.9556 16.1602C34.9556 16.2049 34.9457 16.2495 34.9457 16.2942C34.9408 16.3488 34.9358 16.3984 34.9309 16.4481C34.921 16.5275 34.9111 16.6069 34.9013 16.6863C34.8914 16.7607 34.8815 16.8402 34.8716 16.9146C34.8716 16.9196 34.8716 16.9245 34.8716 16.9295C34.8618 17.0039 34.8519 17.0833 34.842 17.1578C34.8223 17.2769 34.8025 17.396 34.7828 17.5102C34.7828 17.5102 34.7828 17.5102 34.7828 17.5151C34.6346 18.3341 34.4125 19.1232 34.131 19.8876C34.0965 19.9868 34.057 20.0811 34.0175 20.1804V20.1903C33.9681 20.2995 33.9237 20.4087 33.8793 20.5179C33.8348 20.6271 33.7805 20.7363 33.7311 20.8455C33.6916 20.9298 33.6571 21.0142 33.6126 21.0986C33.583 21.1581 33.5583 21.2177 33.5287 21.2723C33.4843 21.3616 33.4448 21.446 33.3954 21.5304C33.351 21.6148 33.3115 21.6892 33.267 21.7686C33.1387 21.9969 33.0054 22.2252 32.8671 22.4436C32.8276 22.5032 32.7931 22.5627 32.7536 22.6223C32.7239 22.6719 32.6894 22.7215 32.6548 22.7712C32.3981 23.1533 32.1265 23.5206 31.8352 23.878C31.6871 24.0566 31.5341 24.2304 31.381 24.4041C31.302 24.4934 31.223 24.5778 31.1391 24.6622C31.0601 24.7515 30.9762 24.8359 30.8922 24.9153C30.8132 24.9947 30.7342 25.0741 30.6503 25.1535C30.5466 25.2528 30.438 25.352 30.3294 25.4463C30.2701 25.5009 30.2109 25.5555 30.1467 25.6052C30.0332 25.7044 29.9245 25.7938 29.811 25.8881C29.732 25.9526 29.653 26.0171 29.574 26.0767C29.5641 26.0866 29.5542 26.0916 29.5444 26.0965L29.2975 26.2851C29.1938 26.3596 29.0852 26.439 28.9815 26.5085C28.8828 26.578 28.789 26.6425 28.6902 26.707C28.5915 26.7715 28.4878 26.836 28.3891 26.9006C28.2903 26.9651 28.1866 27.0246 28.0829 27.0842C27.8805 27.2033 27.6732 27.3175 27.4609 27.4316C27.4164 27.4515 27.3769 27.4763 27.3325 27.4962C27.2189 27.5507 27.1054 27.6103 26.9918 27.6649C26.8783 27.7195 26.7647 27.7741 26.6462 27.8237C26.5327 27.8734 26.4142 27.923 26.3006 27.9726C26.1821 28.0222 26.0636 28.0669 25.9451 28.1116C25.718 28.196 25.486 28.2754 25.249 28.3498C25.1404 28.3846 25.0268 28.4193 24.9132 28.4491C24.8491 28.4689 24.7849 28.4838 24.7207 28.5037C24.6466 28.5235 24.5775 28.5434 24.5035 28.5583C24.4936 28.5583 24.4788 28.5632 24.4689 28.5682C24.3405 28.6029 24.2122 28.6327 24.0838 28.6575C23.9653 28.6873 23.8468 28.7072 23.7283 28.732C23.5654 28.7667 23.4025 28.7915 23.2346 28.8213C23.1062 28.8412 22.968 28.8561 22.8396 28.8759C22.7063 28.8908 22.573 28.9057 22.4348 28.9206C22.415 28.9206 22.4002 28.9206 22.3804 28.9206C22.257 28.9305 22.1336 28.9404 22.0052 28.9504C21.9953 28.9504 21.9855 28.9504 21.9756 28.9504C21.867 28.9603 21.7584 28.9653 21.6448 28.9702C21.472 28.9752 21.2992 28.9801 21.1264 28.9801H20.9092C20.7314 28.9851 20.5487 28.9901 20.371 28.9901H0.493723C0.35548 28.9901 0.241924 28.9404 0.14318 28.8461C0.044435 28.7518 0 28.6327 0 28.4938V0.49632C0 0.362314 0.044435 0.243197 0.14318 0.143933C0.241924 0.0446688 0.35548 0 0.493723 0H20.6919C21.862 0 22.9877 0.129043 24.069 0.397056C24.1282 0.406983 24.1875 0.421872 24.2467 0.441725C24.9577 0.610474 25.6489 0.838781 26.3154 1.11672C28.0188 1.8215 29.5098 2.79925 30.7885 4.05494C30.8922 4.15916 30.9465 4.25843 30.9564 4.36266C30.9663 4.47185 30.9268 4.58104 30.828 4.69023L28.2706 8.41263C28.2508 8.44737 28.2311 8.47219 28.2113 8.50197C28.1373 8.58138 28.0434 8.62605 27.9348 8.63597C27.9299 8.63597 27.925 8.63597 27.9151 8.63597C27.8509 8.63597 27.7867 8.62605 27.7324 8.60123C27.5547 8.38285 27.367 8.17936 27.1646 7.98083C27.1004 7.91631 27.0313 7.84683 26.9622 7.7823C26.1722 7.0279 25.2687 6.43231 24.2467 5.99059C23.1358 5.50916 21.9509 5.26596 20.6919 5.26596H5.25815V23.744H20.687C21.946 23.744 23.1309 23.5057 24.2418 23.0193C25.3527 22.5379 26.3204 21.8728 27.1597 21.0291C27.9941 20.1853 28.6507 19.2026 29.1346 18.0859C29.2086 17.9172 29.2728 17.7484 29.337 17.5747C29.3913 17.4159 29.4407 17.2571 29.4851 17.0933C29.495 17.0585 29.5049 17.0288 29.5147 16.994H15.2807C15.1721 16.994 15.0882 16.9543 15.024 16.8749C15.0092 16.86 14.9944 16.8402 14.9845 16.8203C14.9203 16.7012 14.9252 16.5771 15.0042 16.4381L17.542 12.7058C17.8876 12.2293 18.3319 11.9911 18.8898 11.9911H34.7926C34.7926 11.9911 34.8025 12.0358 34.8025 12.0556C34.8766 12.4874 34.9309 12.8994 34.9654 13.3014C34.9852 13.49 34.9951 13.6786 35 13.8672C35 13.9317 35 14.0012 35 14.0707V14.0657Z" fill="white"/>
</g>
<defs>
<clipPath id="clip0_101_5">
<rect width="35" height="29" fill="white"/>
</clipPath>
</defs>
</svg>
